<svg xmlns="http://www.w3.org/2000/svg" width="121.076" height="40.379"><defs><linearGradient id="a" x1=".242" y1=".169" x2=".572" y2=".738" gradientUnits="objectBoundingBox"><stop offset="0" stop-color="#4e461c"/><stop offset="1" stop-color="#ef5123"/></linearGradient><linearGradient id="b" x1=".33" y1=".651" x2=".584" y2=".219" gradientUnits="objectBoundingBox"><stop offset="0" stop-color="#184722"/><stop offset="1" stop-color="#77bf43"/></linearGradient><linearGradient id="c" x1=".313" y1=".25" x2=".66" y2=".895" gradientUnits="objectBoundingBox"><stop offset="0" stop-color="#056438"/><stop offset="1" stop-color="#39b671"/></linearGradient><linearGradient id="d" x1=".703" y1=".094" x2=".32" y2=".818" gradientUnits="objectBoundingBox"><stop offset="0" stop-color="#5ac8e5"/><stop offset="1" stop-color="#06486d"/></linearGradient><linearGradient id="e" x1=".239" y1=".715" x2=".57" y2=".452" gradientUnits="objectBoundingBox"><stop offset="0" stop-color="#f0668d"/><stop offset="1" stop-color="#e61a4c"/></linearGradient></defs><path d="M55.902 37.738V21.013h2.646v6.125a4.845 4.845 0 00.914 3.062 3.134 3.134 0 002.6 1.225 3.071 3.071 0 002.672-1.342 5.206 5.206 0 00.77-2.944 5.046 5.046 0 00-.867-2.992 3.011 3.011 0 00-2.574-1.345 5.628 5.628 0 00-2.756.836v-2.214a8.086 8.086 0 013.117-.742 5.346 5.346 0 014.38 1.908 6.971 6.971 0 011.444 4.593 7.257 7.257 0 01-1.3 4.429 4.8 4.8 0 01-4.066 1.956q-2.984 0-4.188-1.932h-.047v6.1zm-4.757-5.654a5.953 5.953 0 01-4.308 1.484 4.794 4.794 0 01-2.983-.9 3.154 3.154 0 01-1.3-2.686 3.168 3.168 0 011.539-2.944 8.9 8.9 0 013.275-.849q.431-.093 1.42-.212a10.691 10.691 0 001.2-.188 1.3 1.3 0 001.107-1.319q0-1.672-2.575-1.673t-2.767 1.957h-2.746a3.814 3.814 0 011.876-3.228 7.393 7.393 0 013.8-.848 6.6 6.6 0 013.418.8 3.02 3.02 0 011.589 2.755v.376a2.768 2.768 0 01-1.06 1.556 5.822 5.822 0 01-1.708.988 11.524 11.524 0 01-3.371.683q-2.263.354-2.262 2.027a1.343 1.343 0 00.913 1.248 3.8 3.8 0 001.637.33 3.89 3.89 0 002-.519 2.029 2.029 0 001.085-1.813v-1.1a6.949 6.949 0 002.777-1.76l-.01 4.277a1.524 1.524 0 00.118.707.6.6 0 00.53.212h.289a3.115 3.115 0 00.385-.047v1.861a5.327 5.327 0 01-1.732.307c-1.227.003-1.943-.492-2.136-1.482zm19.179.423a3.829 3.829 0 01-1.613-3.2h2.744q.218 2.12 2.815 2.12 2.84 0 2.768-1.6-.05-.918-1.3-1.367-.265-.093-2.767-.66a7.343 7.343 0 01-2.742-1.036 2.962 2.962 0 01-1.254-2.567 2.934 2.934 0 011.758-2.732 7.168 7.168 0 013.442-.755 6.358 6.358 0 013.44.849 3.721 3.721 0 011.758 2.9h-2.864q-.337-1.627-2.527-1.626-2.26 0-2.263 1.249c0 .582.425 1.02 1.276 1.318.255.094 1.18.306 2.767.638a8.247 8.247 0 012.769 1.036 2.916 2.916 0 011.253 2.521 3.36 3.36 0 01-1.807 3.062 7.264 7.264 0 01-3.755.9 6.549 6.549 0 01-3.898-1.049zm29.49-.871a6.921 6.921 0 01-1.444-4.594 6.562 6.562 0 011.686-4.83 4.961 4.961 0 013.706-1.509 4.507 4.507 0 014.141 1.91h.048v-6.219h2.719v16.8h-2.623v-6.078a4.807 4.807 0 00-.938-3.157 3.042 3.042 0 00-2.5-1.131 3.085 3.085 0 00-2.723 1.39 5.468 5.468 0 00-.771 3.039 4.743 4.743 0 00.819 2.851 3.055 3.055 0 002.623 1.3 5.558 5.558 0 002.749-1.051v2.263a8.317 8.317 0 01-3.109.908 5.337 5.337 0 01-4.383-1.891zm-12.454.07a6.826 6.826 0 01-1.6-4.7 8.82 8.82 0 01.072-1.084l9.04.027a3.508 3.508 0 00-.845-2.184 2.874 2.874 0 00-2.213-.967c-1.87.011-2.442.771-3.1 2.157h-2.648a7.3 7.3 0 012.236-3.168 5.736 5.736 0 013.515-1.107 5.481 5.481 0 014.548 2.191 6.08 6.08 0 011.263 4.82h-9.121a4.013 4.013 0 00.855 2.6 3.084 3.084 0 002.527 1.083 2.888 2.888 0 003.006-2.025h2.6a4.767 4.767 0 01-2.021 3.063 6.01 6.01 0 01-3.586 1.083 5.822 5.822 0 01-4.528-1.788zm-5.555.825a3.435 3.435 0 01-.675-2.308v-7.186h-1.288l-.782-2h2.07v-3.651h2.743v3.651h2.479v2h-2.479v6.5a2.662 2.662 0 00.193 1.249 1.225 1.225 0 001.133.423 2.022 2.022 0 00.6-.059l.558 2.04a17.008 17.008 0 01-1.781.141 3.721 3.721 0 01-2.771-.799zm35.235-9.152a3.5 3.5 0 01-3.5-3.479 3.506 3.506 0 013.477-3.5 3.5 3.5 0 013.563 3.479 3.5 3.5 0 01-3.51 3.5zm-2.8-3.482a2.826 2.826 0 002.8 2.793 2.809 2.809 0 002.833-2.787 2.814 2.814 0 00-2.774-2.814h-.036a2.83 2.83 0 00-2.827 2.805zm3.549 1.616c-.027-.2-.059-.393-.078-.592-.049-.483-.187-.61-.676-.614h-.47v1.2h-.844v-3.278h.729c.33 0 .662-.006.993 0a2.061 2.061 0 01.472.069.789.789 0 01.622.615.893.893 0 01-.3.954l-.132.1c.582.4.351 1.015.526 1.539zm-1.216-2.586v.714c.268 0 .528.016.786 0a.343.343 0 00.342-.352.335.335 0 00-.338-.354c-.1-.008-.2-.011-.307-.011-.16-.002-.321.004-.487.004z" fill="#1a1818" stroke="transparent"/><path d="M285.382 283.421l3.218 13.139s1.723 7.227 8.669 5.811l-5.112-22.053s-1.187-4.512-4.563-5.939z" transform="translate(-254.053 -262.177)" fill="url(#a)"/><path d="M269.546 279.978L266.6 292.5l2.094 8.92.069.249c3.4-1.24 4.344-5.451 4.344-5.451l5.447-22.2a7.2 7.2 0 00-2.307-.407c-5.028 0-6.7 6.368-6.7 6.368" transform="translate(-244.985 -261.818)" fill="url(#b)"/><path d="M247.806 283.359l3.223 13.141s1.683 7.435 8.66 5.5l-5.1-21.747s-1.186-4.512-4.562-5.937z" transform="translate(-235.915 -262.149)" fill="url(#c)"/><path d="M229.931 279.88l-5.113 22.053c6.947 1.417 8.669-5.811 8.669-5.811l5.445-22.2a7.179 7.179 0 00-2.307-.408c-5.026 0-6.695 6.367-6.695 6.367" transform="translate(-224.818 -261.772)" fill="url(#d)"/><path d="M250.061 251.8c-1.744.963-4.441 1.3-7.145 2.332s-3.863 5.7-3.863 5.7c.386-.691 3.283-.777 3.283-.777 5.406-.518 6.786-4.357 7.7-6.166a3.949 3.949 0 01.975-1.391.236.236 0 00-.082-.01 1.948 1.948 0 00-.866.312" transform="translate(-231.69 -251.493)" fill="url(#e)"/></svg>